<?xml version="1.0" encoding="utf-8"?>
<!-- Generator: Adobe Illustrator 16.0.0, SVG Export Plug-In . SVG Version: 6.00 Build 0)  -->
<!DOCTYPE svg PUBLIC "-//W3C//DTD SVG 1.1//EN" "http://www.w3.org/Graphics/SVG/1.1/DTD/svg11.dtd">
<svg version="1.1" id="Layer_1" xmlns="http://www.w3.org/2000/svg" xmlns:xlink="http://www.w3.org/1999/xlink" x="0px" y="0px"
	 width="320px" height="115px" viewBox="0 0 320 115" enable-background="new 0 0 320 115" xml:space="preserve">
<g>
	<path fill="#061C3A" d="M320,40c0,61,0,14,0,75c-106.666,0-213.333,0-320,0c0-61,0-14,0-75c1.833,0,3.667,0,5.43,0
		c8.425-7.999,15.999-16.812,25.382-24.021c2.074,0,4.402,0,7.198,0c2.47-2.471,5.164-5.165,7.892-7.894c2.819,0,5.795,0,9.744,0
		c4.589,4.589,9.621,9.621,14.884,14.884c4.863-4.863,9.998-9.997,14.858-14.858c3.399,0,6.37,0,9.227,0
		c2.702,2.703,5.294,5.296,7.887,7.889c5.333,0,10.666,0,15.999,0c8.367,8.367,16.76,16.709,25.073,25.13
		c1.208,1.224,2.367,2.181,4.398,1.853c1.628,1.632,3.26,3.268,4.921,4.932c2.162,0,4.473,0,6.367,0
		c5.919-5.515,11.573-10.783,17.125-15.955c2.553,0,4.875,0,7.758,0c2.43-2.43,5.121-5.121,7.853-7.853c2.778,0,5.749,0,9.784,0
		c4.549,4.549,9.577,9.577,14.393,14.394c4.744-4.744,9.784-9.783,14.369-14.368c3.989,0,7.107,0,10.222,0
		c2.638,2.672,5.208,5.277,7.785,7.889c5.337,0,10.665,0,15.972,0c8.977,8.976,17.933,17.933,26.897,26.881
		c0.093,0.093,0.3,0.081,0.455,0.095c0.165,0.016,0.333,0.004,0.381,0.004c3.702-3.705,7.345-7.352,11.034-11.046
		c2.865,0,5.654,0,8.006,0C314.409,45.107,317.205,42.554,320,40z"/>
</g>
</svg>
